<svg xmlns="http://www.w3.org/2000/svg" viewBox="0 0 235 50"><path style="fill: #ef5c26" d="M22.6 31.9c0 .7.2 1.3.5 1.6.4.3.9.5 1.7.5h.7c1.1 0 1.9.2 2.3.6.4.4.7 1.1.7 2.2 0 1.4-.6 2.5-1.7 3.1-1.1.7-3 1-5.5 1-2.9 0-4.9-.5-6.1-1.5-1.2-1-1.8-2.7-1.8-5.1V22.6h-1.8c-.9 0-1.6-.2-2.1-.7-.5-.5-.7-1.1-.7-2 0-.8.3-1.5.8-1.9.5-.5 1.2-.7 2.1-.7h1.7v-3.9c0-1.3.4-2.4 1.3-3.2.8-.8 1.9-1.2 3.3-1.2 1.5 0 2.7.4 3.4 1.1.8.7 1.2 1.8 1.2 3.2v4h2.9c.9 0 1.7.2 2.2.7.5.5.8 1.1.8 1.9 0 .9-.3 1.5-.8 2s-1.2.7-2.1.7h-3v9.3zm30.2-.9c1.4 0 2.4-.3 3.1-.8.6-.5.9-1.4.9-2.5 0-1.3-.3-2.6-.8-3.9-.6-1.3-1.3-2.5-2.3-3.5-1.2-1.2-2.6-2.2-4.1-2.8-1.5-.6-3.2-.9-4.9-.9-4.1 0-7.4 1.1-9.7 3.4-2.4 2.3-3.6 5.3-3.6 9.2 0 3.8 1.2 6.7 3.5 8.9s5.5 3.3 9.5 3.3c3.3 0 6-.6 8.1-1.6 2.1-1.1 3.1-2.5 3.1-4.1 0-.8-.3-1.4-.8-1.9s-1.2-.7-2.1-.7c-.8 0-1.9.4-3.1 1.2-.4.2-.7.4-.9.5-.6.3-1.2.6-1.8.7-.5.1-1.1.2-1.7.2-1.6 0-2.7-.4-3.5-1.1-.8-.8-1.2-1.9-1.2-3.5l12.3-.1zm-12.3-4.7c.1-1.4.4-2.4 1.1-3.2.7-.8 1.7-1.1 2.9-1.1 1.3 0 2.3.4 3 1.1.7.7 1.1 1.8 1.2 3.2h-8.2m28.6-5.6c-.1-1.2-.5-2.2-1.2-2.8-.7-.7-1.7-1-3-1-1.4 0-2.4.4-3.1 1.1-.7.8-1.1 1.9-1.1 3.3V36c0 1.5.4 2.6 1.2 3.5.8.9 1.9 1.3 3.3 1.3s2.5-.4 3.3-1.3c.8-.9 1.3-2 1.3-3.4v-8.2c0-1.3.3-2.3.8-3 .5-.7 1.3-1 2.3-1 1.2 0 2 .3 2.5 1s.8 1.8.8 3.4V36c0 1.5.4 2.6 1.2 3.5.8.9 1.9 1.3 3.3 1.3s2.5-.4 3.3-1.2c.8-.8 1.2-2 1.2-3.4v-8c0-1.4.3-2.5.8-3.2.5-.7 1.3-1 2.4-1 1.1 0 2 .3 2.5 1 .5.6.7 1.7.7 3.2v8c0 1.5.4 2.6 1.2 3.5.8.9 1.9 1.3 3.3 1.3s2.5-.4 3.3-1.3c.8-.8 1.2-2 1.2-3.4V24.7c0-2.5-.8-4.5-2.3-5.9-1.5-1.4-3.6-2.1-6.4-2.1-1.7 0-3.2.3-4.5 1-1.3.7-2.6 1.7-3.7 3.1-.7-1.3-1.6-2.3-2.8-3-1.2-.7-2.6-1-4.2-1s-3.1.3-4.3 1c-1.2.6-2.3 1.6-3.3 2.9M130 25c0-1.7-.2-3.1-.7-4-.4-.9-1.2-1.8-2.3-2.5-.9-.6-2.2-1.1-3.7-1.4-1.6-.3-3.3-.5-5.3-.5-3.4 0-6.2.6-8.3 1.7-2.1 1.1-3.2 2.5-3.2 4.3 0 .8.3 1.4.8 2 .5.6 1.1.8 1.8.8 1.3 0 2.7-.6 4.2-1.7.4-.3.7-.5.9-.7.5-.3 1-.5 1.6-.7.6-.1 1.3-.2 2.1-.2 1 0 1.7.2 2.3.5.5.3.8.8.8 1.4 0 1.2-1.7 2-5 2.3-.8.1-1.4.1-1.8.2-3.6.4-6.1 1.2-7.5 2.3-1.4 1.1-2.2 2.8-2.2 5.1s.7 4.2 2.1 5.5c1.4 1.3 3.5 1.9 6.1 1.9 2 0 3.7-.3 5.2-1s2.7-1.7 3.7-3.1c.2 1.3.7 2.2 1.4 2.8.7.6 1.8.9 3.1.9s2.3-.3 2.9-.8c.7-.5 1-1.3 1-2.3v-1.3V25zm-9.1 5.1v1.1c0 1.6-.4 2.8-1.1 3.5-.7.7-1.9 1.1-3.4 1.1-.9 0-1.5-.2-2-.6-.5-.4-.7-.9-.7-1.6 0-.7.2-1.2.7-1.5.4-.3 1.3-.6 2.5-.8.9-.2 1.7-.3 2.3-.5.6-.2 1.2-.4 1.7-.7m22.9-1.6c0-1.6.3-2.8.8-3.5.6-.8 1.4-1.2 2.6-1.2 1.1 0 2 .3 2.4 1 .5.7.7 1.9.7 3.6v7.3c0 1.7.4 2.9 1.2 3.8.8.9 2 1.3 3.5 1.3s2.6-.4 3.4-1.3c.8-.9 1.2-2.1 1.2-3.8v-7.3c0-2.1-.1-3.8-.2-4.8-.2-1.1-.4-2-.8-2.8-.6-1.3-1.6-2.3-2.9-3.1-1.3-.7-2.8-1.1-4.5-1.1-1.8 0-3.4.4-4.8 1.1-1.3.7-2.5 1.8-3.4 3.3 0-1.4-.4-2.4-1.1-3.1-.7-.7-1.8-1.1-3.1-1.1-1.4 0-2.4.4-3.1 1.1-.7.7-1.1 1.9-1.1 3.3V36c0 1.5.4 2.7 1.2 3.5.8.9 1.9 1.3 3.4 1.3 1.4 0 2.5-.4 3.4-1.3.8-.9 1.3-2 1.3-3.4v-7.6zm45.1-15c0-1.5-.4-2.6-1.2-3.5-.8-.9-1.9-1.3-3.3-1.3s-2.5.4-3.3 1.3c-.8.8-1.2 2-1.2 3.4v6.4c-.9-1-1.9-1.8-3-2.3-1.1-.5-2.3-.8-3.6-.8-3.1 0-5.5 1.1-7.4 3.4-1.8 2.2-2.7 5.2-2.7 9 0 3.9.9 6.9 2.8 9.1 1.9 2.2 4.5 3.3 7.9 3.3 1.5 0 2.9-.3 4-.9 1.1-.6 2.1-1.6 2.8-2.8.2 1.2.6 2.2 1.3 2.8.7.6 1.6 1 2.8 1 1.3 0 2.3-.4 3-1.2.7-.8 1-2 1-3.5V13.5m-12.6 10.3c1.3 0 2.2.4 2.9 1.3.6.9.9 2.2.9 4.1 0 1.7-.3 3-1 3.9-.7.9-1.6 1.4-2.8 1.4-1.2 0-2.1-.5-2.8-1.4-.7-.9-1-2.3-1-4 0-1.9.3-3.2.9-4.1.7-.8 1.6-1.2 2.9-1.2m16.4 5.1c0 3.9 1.2 6.9 3.5 9.1 2.3 2.2 5.5 3.3 9.6 3.3s7.3-1.1 9.6-3.3c2.3-2.2 3.5-5.3 3.5-9.1s-1.2-6.9-3.5-9.1c-2.3-2.2-5.5-3.3-9.6-3.3s-7.3 1.1-9.6 3.3c-2.3 2.2-3.5 5.3-3.5 9.1m9.4 0c0-2.1.3-3.6.9-4.6.6-.9 1.6-1.4 2.9-1.4 1.3 0 2.3.5 2.9 1.4.6.9.9 2.4.9 4.6 0 2.1-.3 3.7-.9 4.6-.6.9-1.6 1.4-2.9 1.4-1.3 0-2.3-.5-2.9-1.4-.6-.9-.9-2.5-.9-4.6m16.9-9.2h1v2.5h.9v-2.5h1V19H219v.7zm3.5 2.5h.8v-2.4l.9 2.4h.4l.9-2.4v2.4h.8V19H225l-.7 1.9-.7-1.9h-1.1v3.2z"/></svg>